<svg width="242" height="61" viewBox="0 0 242 61" fill="none" xmlns="http://www.w3.org/2000/svg">
<path d="M31.8 45.48C27.64 45.48 24.0667 44.0667 21.08 41.24C18.0933 38.3867 16.6 34.88 16.6 30.72C16.6 26.5333 17.9067 23.0267 20.52 20.2C23.1333 17.3467 26.48 15.92 30.56 15.92C33.76 15.92 37 16.4533 40.28 17.52L39.76 19.12C36.56 18.16 33.4933 17.68 30.56 17.68C27.0667 17.68 24.2133 18.9333 22 21.44C19.7867 23.9467 18.68 27.0133 18.68 30.64C18.68 34.2667 19.96 37.36 22.52 39.92C25.1067 42.4533 28.2 43.72 31.8 43.72C34.9467 43.72 37.6667 43.24 39.96 42.28L40.56 43.64C39.5467 44.2267 38.2133 44.68 36.56 45C34.9333 45.32 33.3467 45.48 31.8 45.48ZM48.8847 36L45.1647 45H43.2847L54.1647 18.88H55.2447L66.2047 45H64.1647L60.4047 36H48.8847ZM54.6047 21.84C54.2047 23.04 53.8447 24.04 53.5247 24.84L49.5247 34.44H59.7647L55.8047 24.88C55.1914 23.3867 54.7914 22.3733 54.6047 21.84ZM79.7919 43.64C83.2052 43.64 85.9385 42.72 87.9919 40.88C90.0719 39.04 91.1119 36.2667 91.1119 32.56C91.1119 28.8533 89.9385 25.9067 87.5919 23.72C85.2719 21.5333 82.4052 20.44 78.9919 20.44C76.5652 20.44 74.6985 20.4933 73.3919 20.6V43.36C74.9919 43.5467 77.1252 43.64 79.7919 43.64ZM78.9919 18.8C82.9919 18.8 86.3252 20.04 88.9919 22.52C91.6852 24.9733 93.0319 28.32 93.0319 32.56C93.0319 36.8 91.7919 39.9867 89.3119 42.12C86.8585 44.2533 83.6852 45.32 79.7919 45.32C77.0985 45.32 74.3252 45.1867 71.4719 44.92V19.04C73.6052 18.88 76.1119 18.8 78.9919 18.8ZM101.853 36L98.1334 45H96.2534L107.133 18.88H108.213L119.173 45H117.133L113.373 36H101.853ZM107.573 21.84C107.173 23.04 106.813 24.04 106.493 24.84L102.493 34.44H112.733L108.773 24.88C108.16 23.3867 107.76 22.3733 107.573 21.84ZM129.681 20.16C128.241 20.16 127.067 20.5067 126.161 21.2C125.254 21.8933 124.801 22.8667 124.801 24.12C124.801 25.56 125.401 26.8533 126.601 28C127.454 28.8267 128.547 29.7067 129.881 30.64C131.241 31.5467 132.174 32.2 132.681 32.6C133.187 33 133.801 33.5467 134.521 34.24C135.827 35.5467 136.481 37.0533 136.481 38.76C136.481 40.9733 135.734 42.6533 134.241 43.8C132.774 44.92 130.707 45.48 128.041 45.48C125.401 45.48 123.187 44.7867 121.401 43.4L122.361 42C124.174 43.2267 126.094 43.84 128.121 43.84C130.147 43.84 131.721 43.4133 132.841 42.56C133.987 41.7067 134.561 40.5067 134.561 38.96C134.561 37.6267 133.987 36.4 132.841 35.28C132.041 34.48 130.961 33.6133 129.601 32.68C128.267 31.7467 127.334 31.08 126.801 30.68C126.267 30.2533 125.641 29.6933 124.921 29C123.561 27.64 122.881 26.0667 122.881 24.28C122.881 22.4933 123.507 21.0933 124.761 20.08C126.041 19.0667 127.801 18.56 130.041 18.56C132.281 18.56 134.294 19 136.081 19.88L135.401 21.36C133.747 20.56 131.841 20.16 129.681 20.16ZM148.495 20.68H139.695V19.04H159.095V20.68H150.295V45H148.495V20.68ZM164.519 45V19.16C166.812 18.9733 168.759 18.88 170.359 18.88C172.812 18.88 174.839 19.52 176.439 20.8C178.039 22.0533 178.839 23.8533 178.839 26.2C178.839 27.7733 178.385 29.2267 177.479 30.56C176.572 31.8933 175.545 32.9733 174.399 33.8C177.572 38.0133 179.532 40.5333 180.279 41.36C181.799 42.9333 183.452 43.8267 185.239 44.04L185.199 45.28C183.705 45.2533 182.492 45.04 181.559 44.64C180.625 44.2133 179.692 43.5067 178.759 42.52C177.852 41.5333 175.839 38.88 172.719 34.56C170.559 34.56 168.439 34.4933 166.359 34.36V45H164.519ZM171.719 33.04C172.759 33.04 173.879 32.3467 175.079 30.96C176.279 29.5733 176.879 27.96 176.879 26.12C176.879 24.28 176.252 22.88 174.999 21.92C173.745 20.96 172.119 20.48 170.119 20.48C169.052 20.48 167.799 20.5333 166.359 20.64V32.84C168.279 32.9733 170.065 33.04 171.719 33.04ZM191.111 36L187.391 45H185.511L196.391 18.88H197.471L208.431 45H206.391L202.631 36H191.111ZM196.831 21.84C196.431 23.04 196.071 24.04 195.751 24.84L191.751 34.44H201.991L198.031 24.88C197.418 23.3867 197.018 22.3733 196.831 21.84ZM213.698 45V19.16C215.992 18.9733 217.938 18.88 219.538 18.88C221.992 18.88 224.018 19.52 225.618 20.8C227.218 22.0533 228.018 23.8533 228.018 26.2C228.018 27.7733 227.565 29.2267 226.658 30.56C225.752 31.8933 224.725 32.9733 223.578 33.8C226.752 38.0133 228.712 40.5333 229.458 41.36C230.978 42.9333 232.632 43.8267 234.418 44.04L234.378 45.28C232.885 45.2533 231.672 45.04 230.738 44.64C229.805 44.2133 228.872 43.5067 227.938 42.52C227.032 41.5333 225.018 38.88 221.898 34.56C219.738 34.56 217.618 34.4933 215.538 34.36V45H213.698ZM220.898 33.04C221.938 33.04 223.058 32.3467 224.258 30.96C225.458 29.5733 226.058 27.96 226.058 26.12C226.058 24.28 225.432 22.88 224.178 21.92C222.925 20.96 221.298 20.48 219.298 20.48C218.232 20.48 216.978 20.5333 215.538 20.64V32.84C217.458 32.9733 219.245 33.04 220.898 33.04Z" fill="white"/>
<line x1="1.48492" y1="-0.000125631" x2="1.5" y2="59.9999" stroke="white"/>
<path d="M0.999953 60.0292L242 60.0001" stroke="white"/>
</svg>
