<svg width="164" height="61" viewBox="0 0 164 61" fill="none" xmlns="http://www.w3.org/2000/svg">
<path d="M17.28 45V16.4H19.2V43.24H32.36V45H17.28ZM47.3425 45.4C43.6358 45.4 40.5292 44.1067 38.0225 41.52C35.5158 38.9333 34.2625 35.7733 34.2625 32.04C34.2625 28.28 35.5158 25.1067 38.0225 22.52C40.5292 19.9333 43.6358 18.64 47.3425 18.64C51.0492 18.64 54.1558 19.9333 56.6625 22.52C59.1692 25.1067 60.4225 28.28 60.4225 32.04C60.4225 35.7733 59.1692 38.9333 56.6625 41.52C54.1558 44.1067 51.0492 45.4 47.3425 45.4ZM47.3425 20.28C44.1425 20.28 41.4758 21.4133 39.3425 23.68C37.2358 25.9467 36.1825 28.7333 36.1825 32.04C36.1825 35.32 37.2358 38.0933 39.3425 40.36C41.4758 42.6 44.1425 43.72 47.3425 43.72C50.5692 43.72 53.2358 42.6 55.3425 40.36C57.4492 38.0933 58.5025 35.32 58.5025 32.04C58.5025 28.7333 57.4492 25.9467 55.3425 23.68C53.2358 21.4133 50.5692 20.28 47.3425 20.28ZM79.2806 20.28C76.3206 20.28 73.8273 21.4133 71.8006 23.68C69.8006 25.92 68.8006 28.68 68.8006 31.96C68.8006 35.24 69.934 38.0267 72.2006 40.32C74.4673 42.5867 77.134 43.72 80.2006 43.72C83.294 43.72 85.694 43.36 87.4006 42.64V31.96H89.2406V43.48C87.1606 44.76 84.214 45.4 80.4006 45.4C76.5873 45.4 73.374 44.1067 70.7606 41.52C68.1473 38.9333 66.8406 35.76 66.8406 32C66.8406 28.2133 68.014 25.04 70.3606 22.48C72.734 19.92 75.7873 18.64 79.5206 18.64C82.534 18.64 85.4806 19.1067 88.3606 20.04L87.8806 21.56C85.1073 20.7067 82.2406 20.28 79.2806 20.28ZM99.2519 36L95.5319 45H93.6519L104.532 18.88H105.612L116.572 45H114.532L110.772 36H99.2519ZM104.972 21.84C104.572 23.04 104.212 24.04 103.892 24.84L99.8919 34.44H110.132L106.172 24.88C105.559 23.3867 105.159 22.3733 104.972 21.84ZM121.839 45V19.16C124.132 18.9733 126.079 18.88 127.679 18.88C130.132 18.88 132.159 19.52 133.759 20.8C135.359 22.0533 136.159 23.8533 136.159 26.2C136.159 27.7733 135.706 29.2267 134.799 30.56C133.892 31.8933 132.866 32.9733 131.719 33.8C134.892 38.0133 136.852 40.5333 137.599 41.36C139.119 42.9333 140.772 43.8267 142.559 44.04L142.519 45.28C141.026 45.2533 139.812 45.04 138.879 44.64C137.946 44.2133 137.012 43.5067 136.079 42.52C135.172 41.5333 133.159 38.88 130.039 34.56C127.879 34.56 125.759 34.4933 123.679 34.36V45H121.839ZM129.039 33.04C130.079 33.04 131.199 32.3467 132.399 30.96C133.599 29.5733 134.199 27.96 134.199 26.12C134.199 24.28 133.572 22.88 132.319 21.92C131.066 20.96 129.439 20.48 127.439 20.48C126.372 20.48 125.119 20.5333 123.679 20.64V32.84C125.599 32.9733 127.386 33.04 129.039 33.04Z" fill="white"/>
<line x1="0.5" y1="-0.000125631" x2="0.515076" y2="59.9999" stroke="white"/>
<path d="M-3.18361e-05 60.0292L164 60.0073" stroke="white"/>
</svg>
